<?xml version="1.0" encoding="UTF-8"?>
<svg version="1.1" viewBox="0 0 2048 812" width="426" height="169" xmlns="http://www.w3.org/2000/svg">
<path transform="translate(0)" d="m0 0h2048v812h-2048z" fill="#fff"/>
<path transform="translate(333,299)" d="m0 0h105v48l-3 14-6 12-14 14-22 18-10 9-9 13-5 11-4 20v12l4 20 8 16 11 12 11 7 12 5 9 2h31l16-4 14-7 10-9 7-9 6-13 3-14 1-177h38l-1 182-5 21-6 14-8 12-11 12-14 10-16 8-21 6-22 3-21-1-21-4-19-7-15-9-11-9-10-12-8-14-6-15-3-16v-28l2-14 6-17 9-16 11-12 7-7 11-9 14-12 9-8 4-6 4-19-73-1z" fill="#020202"/>
<path transform="translate(1337,295)" d="m0 0h18l20 2 20 5 16 7 11 6 13 10 8 8 10 14 8 17 4 16 2 11v170l-1 1h-35l-1-163-2-16-6-16-7-11-9-10-14-9-11-5-11-3-7-1h-34l-14 3-12 5-11 6-12 11-9 13-5 11-3 8 1 4 8 7 7 12 3 9 1 6v138l-1 1h-34l-1-120-1-19-7-14-4-5-11-8 3-16 4-14 5-12 10-16 13-14 13-10 17-9 18-6 17-3z" fill="#020202"/>
<path transform="translate(1601,295)" d="m0 0h14l17 2 16 5 16 8 11 8 9 8 9 12 8 14 6 14 6 21 3 24v27l-2 20-5 21-6 16-6 12-9 13-11 12-14 11-17 9-18 6-18 3-11 1h-36l-5-8-89-178v-1h42l3 5 14 29 13 28 16 33 13 28 15 31 4 2 26-4 13-4 13-7 10-8 8-10 9-16 6-17 4-24v-32l-4-22-6-16-8-14-11-13-10-7-15-7-9-2h-29l-15 4-10 4-2-1 1-29 8-4 16-5z" fill="#020202"/>
<path transform="translate(836,295)" d="m0 0h19l20 2 17 4 20 8 14 8 11 9 10 10 9 13 8 16 7 21 3 15 1 10v40l-3 21-6 21-8 16-9 14-11 12-14 11-19 10-18 6-21 4-12 1h-11l-22-2-23-5-16-6-24-12v-36l11 7 14 8 15 6 13 4 20 3h21l20-3 15-5 15-8 12-11 9-12 7-15 5-17 3-21v-24l-3-20-5-16-8-16-8-11-9-9-13-8-11-5-14-4-8-1h-37l-15 3-18 6-19 10-7 5h-2v-33l9-6 17-8 15-5 13-3z" fill="#020202"/>
<path transform="translate(631,295)" d="m0 0h19l19 2 19 5 16 7 14 10 7 7 9 14 7 16 3 14 2 13v179h-37l-1-175-2-14-4-12-7-12-7-7-10-6-11-5-14-3h-37l-16 3-15 5-21 11-10 7h-3l1-33 17-10 18-8 23-6z" fill="#020202"/>
<path transform="translate(994,300)" d="m0 0h36l1 215 3 8 7 5 9 2 25 1v13l-1 17-1 1h-40l-12-2-14-7-5-4-5-8-3-9-1-37v-194z" fill="#020202"/>
<path transform="translate(1133,300)" d="m0 0h36l1 2v207l2 12 7 6 10 3 26 1-1 28-2 3h-39l-12-2-14-7-6-5-7-14-1-4z" fill="#020202"/>
<path transform="translate(455,178)" d="m0 0h21l13 4 8 5 7 7 4 10v18l-4 10-5 5-1 3h85l2 1v24h-135v-20l18-10 7-7 3-6v-7l-4-7-6-3-4-1h-11l-12 2v-22l4-3z" fill="#020202"/>
</svg>